<svg xmlns="http://www.w3.org/2000/svg" width="512" height="512">
  <path d="M468.953 128h-105.89V42.664L299.063 0h-85.344l-64 42.664V128H42.282l.781 341.344c0 23.562 19.094 42.656 42.656 42.656h341.344c23.562 0 42.656-19.094 42.656-42.656L468.953 128zM320.391 39.859l21.328 14.227V128h-21.328V39.859zM213.719 21.336h85.344v21.328h-85.344V21.336zm0 42.664h85.344v64h-85.344V64zm-42.656-9.914l21.328-14.227V128h-21.328V54.086zm256 436.57H85.719c-11.766 0-21.328-9.562-21.328-21.312v-.062l-.719-319.945h384l.719 320.039c-.016 11.749-9.578 21.28-21.328 21.28z" fill="#fa6262"/>
  <path d="M289.406 217.274l-60.562 107.664-31.875-54-79.25 134.156h277.343l-105.656-187.82zM195.75 383.766h-40.656l41.875-70.875 19.797 33.516-21.016 37.359zm24.484 0l69.172-122.977 69.172 122.977H220.234z" fill="#fa6262"/>
</svg>
