<svg height="512" width="512" xmlns="http://www.w3.org/2000/svg">
  <path d="M512 105.71v362.03c0 24.4-19.86 44.26-44.26 44.26H44.26C19.86 512 0 492.14 0 467.74V105.71l256-52.2z" fill="#f3eee9"/>
  <path d="M512 105.71v362.03c0 24.4-19.86 44.26-44.26 44.26H256V53.51z" fill="#e9dfda"/>
  <path d="M512 44.26v61.45H0V44.26C0 19.86 19.86 0 44.26 0h423.48C492.14 0 512 19.86 512 44.26z" fill="#07485e"/>
  <path d="M76.609 38.507H56.108c-8.284 0-15 6.716-15 15s6.716 15 15 15h20.501c8.284 0 15-6.716 15-15s-6.715-15-15-15z" fill="#ff7127"/>
  <path d="M140.609 38.507h-20.501c-8.284 0-15 6.716-15 15s6.716 15 15 15h20.501c8.284 0 15-6.716 15-15s-6.715-15-15-15z" fill="#ffae3b"/>
  <path d="M204.609 38.507h-20.501c-8.284 0-15 6.716-15 15s6.716 15 15 15h20.501c8.284 0 15-6.716 15-15s-6.715-15-15-15z" fill="#e9dfda"/>
  <path d="M457.08 166.16v110c0 8.29-6.72 15-15 15H70.15c-8.29 0-15-6.71-15-15v-110c0-8.28 6.71-15 15-15h371.93c8.28 0 15 6.72 15 15z" fill="#7ed6f4"/>
  <g fill="#07485e">
    <path d="M412.77 331.16c0 8.29-6.71 15-15 15H70.15c-8.29 0-15-6.71-15-15 0-8.28 6.71-15 15-15h327.62c8.29 0 15 6.72 15 15zM70.146 398.165h134.541c8.284 0 15-6.716 15-15s-6.716-15-15-15H70.146c-8.284 0-15 6.716-15 15s6.716 15 15 15zM368.29 435.14c0 8.28-6.71 15-15 15H66.78c-8.29 0-15-6.72-15-15s6.71-15 15-15h286.51c8.29 0 15 6.72 15 15z"/>
  </g>
  <path d="M442.249 420.14h-29.475c-8.284 0-15 6.716-15 15s6.716 15 15 15h29.475c8.284 0 15-6.716 15-15s-6.716-15-15-15zM368.29 435.14c0 8.28-6.71 15-15 15H256v-30h97.29c8.29 0 15 6.72 15 15zM412.77 331.16c0 8.29-6.71 15-15 15H256v-30h141.77c8.29 0 15 6.72 15 15z" fill="#002438"/>
  <path d="M457.08 166.16v110c0 8.29-6.72 15-15 15H256v-140h186.08c8.28 0 15 6.72 15 15z" fill="#6aa7ff"/>
  <path d="M512 44.26v61.45H256V0h211.74C492.14 0 512 19.86 512 44.26z" fill="#03232e"/>
</svg>
