<svg height="512pt" viewBox="0 -31 512 511" width="512pt" xmlns="http://www.w3.org/2000/svg">
  <path d="M256 448.715h256V128.07l-276.016-20.015zm0 0" fill="#03232e"/>
  <path d="M0 128.07v320.645h256v-340.66zm0 0" fill="#07485e"/>
  <path d="M256 .5l-20.016 63.785L256 128.07h256V.5zm0 0" fill="#b4d2d7"/>
  <path d="M0 .5h256v127.57H0zm0 0" fill="#e1ebf0"/>
  <path d="M47.84 49.285h31.89v30H47.84zm0 0" fill="#ff4a4a"/>
  <path d="M111.625 49.285h31.895v30h-31.895zm0 0" fill="#ffd422"/>
  <path d="M175.41 49.285h31.895v30H175.41zm0 0" fill="#00cc76"/>
  <path d="M184.121 383.055l-74.484-94.66 74.484-94.665 23.578 18.551-59.887 76.114L207.7 364.5zm0 0" fill="#fff5f5"/>
  <path d="M327.879 383.055L304.3 364.5l59.886-76.105-59.886-76.114 23.578-18.55 74.484 94.664zm0 0" fill="#efe2dd"/>
  <path d="M241 192.734h30v191.317h-30zm0 0" fill="#fff5f5"/>
</svg>
