<svg height="512pt" viewBox="0 -11 512 512" width="512pt" xmlns="http://www.w3.org/2000/svg">
  <path d="M435.863 60.645C387.683 21.535 323.805 0 256 0S124.32 21.535 76.137 60.645C27.039 100.488 0 153.746 0 210.602c0 53.503 24.348 104.472 68.555 143.515 39.937 35.27 92.96 58.04 150.535 64.875v55.856c0 8.285 6.715 15 15 15 25.945 0 96.18-31.84 155.476-77.528 35.422-27.293 63.809-56.601 84.368-87.12C499.19 287.71 512 249.151 512 210.601c0-56.856-27.04-110.114-76.137-149.957zm0 0" fill="#54e360"/>
  <path d="M435.863 60.645C387.683 21.535 323.805 0 256 0v485.73c33.285-9.988 86.82-37.394 133.566-73.41 35.422-27.293 63.809-56.601 84.368-87.12C499.19 287.71 512 249.151 512 210.601c0-56.856-27.04-110.114-76.137-149.957zm0 0" fill="#1fbf66"/>
  <g fill="#e7f0ef">
    <path d="M164.555 246.516h-34.703v-88.211c0-6.54-6.008-10.93-14.946-10.93s-14.945 4.39-14.945 10.93v104.437c0 6.426 5.746 11.086 13.66 11.086h50.934c6.238 0 10.765-5.742 10.765-13.656 0-8.043-4.425-13.656-10.765-13.656zm0 0M197.668 147.375c-8.938 0-14.941 4.39-14.941 10.93v104.437c0 6.528 6.144 11.086 14.941 11.086 8.66 0 14.941-4.66 14.941-11.086V158.305c0-6.54-6.004-10.93-14.941-10.93zm0 0M299.871 147.375c-8.937 0-14.941 4.39-14.941 10.93v46.097l-22.528-43.535c-5.5-10.469-9.89-13.492-19.566-13.492-8.941 0-14.945 4.457-14.945 11.09v104.277c0 6.528 6.144 11.086 14.945 11.086 8.656 0 14.941-4.66 14.941-11.086v-46.637l26.102 48.801c3.246 5.922 8.629 8.922 15.996 8.922 8.656 0 14.941-4.66 14.941-11.086V158.305c0-6.54-6.003-10.93-14.945-10.93zm0 0"/>
  </g>
  <path d="M400.95 246.516h-40.97v-23.297h19.922c7.203 0 11.086-6.457 11.086-12.535 0-7.329-4.765-12.856-11.086-12.856H359.98v-23.133h40.97c6.429 0 11.09-5.812 11.09-13.82 0-7.82-4.661-13.5-11.09-13.5h-57.2c-7.914 0-13.656 4.664-13.656 11.09v104.277c0 6.426 5.742 11.086 13.656 11.086h57.2c6.429 0 11.09-5.676 11.09-13.5 0-8.004-4.661-13.812-11.09-13.812zm0 0M299.871 147.375c-8.937 0-14.941 4.39-14.941 10.93v46.097l-22.528-43.535c-2.172-4.14-4.18-7.101-6.402-9.183V268.23a9.295 9.295 0 001.777-5.488v-46.637l26.102 48.801c3.246 5.922 8.629 8.922 15.996 8.922 8.656 0 14.941-4.66 14.941-11.086V158.305c0-6.54-6.003-10.93-14.945-10.93zm0 0" fill="#c5e1e6"/>
</svg>
