<svg xmlns="http://www.w3.org/2000/svg" viewBox="0 0 424.629 424.629" width="512" height="512">
  <path d="M343 223.508l-54.6-52.6 29.5-70.3c2.1-5.1-.3-11-5.4-13.1-2.8-1.2-6-1-8.7.5l-66.1 36.2-56.3-50.5c-4.1-3.7-10.4-3.3-14.1.8-2 2.3-2.9 5.4-2.4 8.4l13.3 75.2-64.8 38.8c-4.7 2.8-6.3 9-3.4 13.7 1.6 2.6 4.2 4.4 7.2 4.8l39.3 5.4-148.1 148c-11.2 11.2-11.2 29.3 0 40.5s29.3 11.2 40.5.1l.1-.1 150.4-150.5 9 41.4c.9 4.2 4.4 7.3 8.6 7.8.4 0 .8.1 1.2.1 3.8 0 7.4-2.2 9-5.7l32.9-68.7 75 6.9c5.5.5 10.4-3.5 10.9-9 .3-3-.8-6-3-8.1zm-308.3 171.7c-3.4 3.4-8.8 3.4-12.2 0-3.4-3.4-3.4-8.8 0-12.2l52.2-52.2 12.2 12.2-52.2 52.2zm66.4-66.4l-12.2-12.2 92.4-92.4 10.8 1.5 2.2 9.9-93.2 93.2zm153.9-115.6c-4.2-.4-8.1 1.9-9.9 5.6l-23.3 48.7-11.5-52.9c-.9-4.1-4.3-7.2-8.4-7.8l-53.8-7.4 46.3-27.7c3.6-2.1 5.4-6.2 4.7-10.3l-9.4-53.5 40.1 35.9c3.2 2.8 7.8 3.4 11.5 1.3l47.2-25.9-21.1 50.2c-1.6 3.8-.7 8.2 2.3 11.1l39 37.6-53.7-4.9zM322.9 320.308l-27.9-40.7c-3-4.6-9.2-5.9-13.8-2.9-4.6 3-5.9 9.2-2.9 13.8.1.1.2.2.2.4l27.9 40.7c3.1 4.6 9.3 5.7 13.9 2.6s5.7-9.3 2.6-13.9zM247.4 6.908c-5.5 0-10 4.5-10 10v48.2c0 5.5 4.5 10 10 10s10-4.5 10-10v-48.2c0-5.5-4.5-10-10-10zM424.3 136.508c-1.4-5.2-6.7-8.4-11.9-7.2l-64.3 16.1c-5.4 1.2-8.7 6.6-7.5 12 1.2 5.4 6.6 8.7 12 7.5.1 0 .2-.1.3-.1l64.3-16.1c5.3-1.4 8.5-6.9 7.1-12.2zM115.4 123.208l-47.7-8c-5.5-.9-10.6 2.8-11.4 8.3-.9 5.4 2.7 10.5 8 11.5l47.7 8c.6.1 1.1.1 1.7.1 5.5 0 10-4.5 10-10 0-4.9-3.5-9-8.3-9.9z" fill="#fa6262"/>
</svg>
