<svg xmlns="http://www.w3.org/2000/svg" viewBox="0 0 434.407 434.407" width="512" height="512">
  <g fill="#fa6262">
    <path d="M190.062 62.864a10.972 10.972 0 00-14.629 0 10.971 10.971 0 000 15.151l11.494 11.494-135.314 208.98-40.751 40.751c-4.04 3.706-4.31 9.986-.603 14.025a9.8 9.8 0 00.603.603l77.322 77.322c3.706 4.04 9.986 4.31 14.025.603a9.8 9.8 0 00.603-.603l41.273-40.751 31.869-20.376 44.408 44.408c3.706 4.04 9.986 4.31 14.025.603a9.8 9.8 0 00.603-.603l80.457-80.457a10.45 10.45 0 003.135-7.314 10.447 10.447 0 00-3.135-7.837l-24.033-24.033 61.127-39.184 11.494 11.494a13.06 13.06 0 007.837 2.612 12.54 12.54 0 007.314-2.612 12.016 12.016 0 000-15.151L190.062 62.864zM95.499 409.248l-62.694-62.694 27.167-27.167 62.694 62.694-27.167 27.167zm198.008-82.547l-65.829 65.306-33.959-33.959 79.935-51.2 19.853 19.853zm-154.645 41.796l-65.306-65.306L202.078 104.66l135.314 135.837-198.53 128zM301.866 127.126c2.055 2.1 4.9 3.238 7.837 3.135a10.446 10.446 0 007.314-3.135l59.037-59.037a10.971 10.971 0 000-15.151c-3.706-4.04-9.986-4.31-14.025-.603a9.8 9.8 0 00-.603.603l-59.559 59.037a12.015 12.015 0 00-.001 15.151zM268.429 91.077h3.657a10.972 10.972 0 009.927-6.792l26.122-70.008A10.972 10.972 0 00301.866.693c-5.39-2.063-11.431.635-13.493 6.024a10.22 10.22 0 00-.09.245l-25.6 70.531c-2.153 5.338.416 11.411 5.746 13.584zM426.209 125.558c-1.927-5.44-7.899-8.287-13.339-6.36a10.22 10.22 0 00-.245.09l-70.008 26.122c-5.229 1.648-8.132 7.223-6.484 12.451.065.206.136.409.214.61a10.448 10.448 0 009.927 7.314l3.657-1.045 70.008-25.6a10.968 10.968 0 006.27-13.582z"/>
  </g>
</svg>
