<svg xmlns="http://www.w3.org/2000/svg" viewBox="0 0 463.732 463.732" width="512" height="512">
  <path d="M387.233 277.316l-57.088-86.496 3.632-21.776a8.024 8.024 0 00-1.032-5.432l-96-160c-2.888-4.816-10.832-4.816-13.72 0l-96 160a8.015 8.015 0 00-1.032 5.432l3.832 22.976-57.256 85.264a40.008 40.008 0 00-3.856 37.048L126.465 458.7a7.973 7.973 0 008.928 4.888 7.997 7.997 0 006.488-7.856v-60.688l25.576-25.576 58.84 29.424c1.128.56 2.36.84 3.584.84s2.456-.28 3.576-.84l58.84-29.424 25.584 25.576v60.688a7.997 7.997 0 008.008 8 8.01 8.01 0 007.424-5.032l57.752-144.368a40.021 40.021 0 00-3.832-37.016zm-259.008 108.76a7.965 7.965 0 00-2.344 5.656v22.464l-42.32-105.8a23.994 23.994 0 012.296-22.208l47.792-71.168 9.464 56.792 14.192 85.184-29.08 29.08zm158.44-31.68l-56.784 28.392-56.776-28.392-26.984-161.864-3.864-23.2 87.624-146.056 87.624 146.048-30.84 185.072zm89.536-46l-42.32 105.8v-22.464c0-2.128-.84-4.16-2.344-5.656l-29.072-29.072 24.52-141.904 46.896 71.064a23.985 23.985 0 012.32 22.232z" fill="#fa6262"/>
  <path d="M229.881 127.732c-22.056 0-40 17.944-40 40s17.944 40 40 40 40-17.944 40-40-17.944-40-40-40zm0 64c-13.232 0-24-10.768-24-24s10.768-24 24-24 24 10.768 24 24-10.768 24-24 24zM229.881 223.732c-4.424 0-8 3.576-8 8v96c0 4.424 3.576 8 8 8s8-3.576 8-8v-96c0-4.424-3.576-8-8-8zM141.041 356.156l-32-64c-1.984-3.952-6.784-5.536-10.736-3.576a8.002 8.002 0 00-3.576 10.736l32 64a7.993 7.993 0 007.16 4.416c1.2 0 2.424-.272 3.568-.84 3.952-1.984 5.56-6.784 3.584-10.736zM361.457 288.572c-3.952-1.96-8.76-.376-10.736 3.576l-32 64a8.002 8.002 0 007.152 11.584 8.006 8.006 0 007.168-4.424l32-64c1.976-3.952.368-8.752-3.584-10.736zM197.881 415.732c-4.424 0-8 3.576-8 8v32c0 4.424 3.576 8 8 8s8-3.576 8-8v-32c0-4.424-3.576-8-8-8zM293.881 383.732c-4.424 0-8 3.576-8 8v32c0 4.424 3.576 8 8 8s8-3.576 8-8v-32c0-4.424-3.576-8-8-8zM261.881 415.732c-4.424 0-8 3.576-8 8v32c0 4.424 3.576 8 8 8s8-3.576 8-8v-32c0-4.424-3.576-8-8-8zM101.881 31.732c-4.424 0-8 3.576-8 8v32c0 4.424 3.576 8 8 8s8-3.576 8-8v-32c0-4.424-3.576-8-8-8zM389.881 159.732c-4.424 0-8 3.576-8 8v32c0 4.424 3.576 8 8 8s8-3.576 8-8v-32c0-4.424-3.576-8-8-8z" fill="#fa6262"/>
</svg>
