<svg aria-hidden="true" style="position: absolute; width: 0; height: 0; overflow: hidden;" version="1.1" xmlns="http://www.w3.org/2000/svg" xmlns:xlink="http://www.w3.org/1999/xlink">
<defs>
<symbol id="icon-bag" viewBox="0 0 32 32">
<title>bag</title>
<path fill="#fa6262" style="fill: var(--color1, #fa6262)" d="M29.31 8h-6.618v-5.333l-4-2.667h-5.334l-4 2.667v5.333h-6.715l0.049 21.334c0 1.473 1.193 2.666 2.666 2.666h21.334c1.473 0 2.666-1.193 2.666-2.666l-0.048-21.334zM20.024 2.491l1.333 0.889v4.62h-1.333v-5.509zM13.357 1.333h5.334v1.333h-5.334v-1.333zM13.357 4h5.334v4h-5.334v-4zM10.691 3.38l1.333-0.889v5.509h-1.333v-4.62zM26.691 30.666h-21.334c-0.735 0-1.333-0.598-1.333-1.332v-0.004l-0.045-19.997h24l0.045 20.002c-0.001 0.734-0.599 1.33-1.333 1.33z"></path>
<path fill="#fa6262" style="fill: var(--color1, #fa6262)" d="M18.088 13.58l-3.785 6.729-1.992-3.375-4.953 8.385h17.334l-6.604-11.739zM12.234 23.985h-2.541l2.617-4.43 1.237 2.095-1.313 2.335zM13.765 23.985l4.323-7.686 4.323 7.686h-8.646z"></path>
</symbol>
<symbol id="icon-chat" viewBox="0 0 32 32">
<title>chat</title>
<path fill="#fa6262" style="fill: var(--color1, #fa6262)" d="M5.333 13.581h6.933c0.295 0 0.533-0.239 0.533-0.533s-0.238-0.533-0.533-0.533h-6.933c-0.295 0-0.533 0.239-0.533 0.533s0.238 0.533 0.533 0.533z"></path>
<path fill="#fa6262" style="fill: var(--color1, #fa6262)" d="M19.2 15.715h-13.867c-0.295 0-0.533 0.239-0.533 0.533s0.238 0.533 0.533 0.533h13.867c0.295 0 0.533-0.239 0.533-0.533s-0.238-0.533-0.533-0.533z"></path>
<path fill="#fa6262" style="fill: var(--color1, #fa6262)" d="M19.2 18.915h-13.867c-0.295 0-0.533 0.239-0.533 0.533s0.238 0.533 0.533 0.533h13.867c0.295 0 0.533-0.239 0.533-0.533s-0.238-0.533-0.533-0.533z"></path>
<path fill="#fa6262" style="fill: var(--color1, #fa6262)" d="M28.838 1.352l-18.209-0.037c-1.744 0-3.163 1.419-3.163 3.163v2.733l-4.304 0.009c-1.744 0-3.163 1.419-3.163 3.163v11.275c0 1.744 1.419 3.162 3.163 3.162h3.237v5.333c0 0.22 0.135 0.418 0.341 0.498 0.062 0.024 0.127 0.036 0.192 0.036 0.147 0 0.292-0.061 0.395-0.174l5.175-5.693 8.867-0.036c1.744 0 3.163-1.419 3.163-3.162v-0.060l2.805 3.086c0.103 0.113 0.247 0.174 0.395 0.174 0.065 0 0.13-0.012 0.192-0.036 0.206-0.079 0.341-0.277 0.341-0.498v-5.333h0.571c1.744 0 3.163-1.419 3.163-3.162v-11.276c0-1.743-1.418-3.162-3.162-3.163zM23.467 21.619c0 1.156-0.94 2.095-2.098 2.095l-9.104 0.037c-0.149 0.001-0.292 0.064-0.393 0.174l-4.405 4.846v-4.487c0-0.294-0.238-0.533-0.533-0.533h-3.771c-1.156 0-2.096-0.94-2.096-2.095v-11.275c0-1.156 0.94-2.096 2.097-2.096l4.836-0.010c0 0 0 0 0 0s0.001 0 0.001 0l13.37-0.028c1.156 0 2.096 0.94 2.096 2.096v11.276zM30.933 15.79c0 1.156-0.94 2.095-2.096 2.095h-1.104c-0.295 0-0.533 0.239-0.533 0.533v4.487l-2.667-2.933v-9.629c0-1.744-1.419-3.163-3.164-3.163l-12.836 0.026v-2.731c0-1.156 0.94-2.096 2.095-2.096l18.209 0.037c0.001 0 0.001 0 0.001 0 1.156 0 2.096 0.94 2.096 2.096v11.276z"></path>
</symbol>
<symbol id="icon-startup" viewBox="0 0 32 32">
<title>startup</title>
<path fill="#fa6262" style="fill: var(--color1, #fa6262)" d="M26.721 19.136l-3.939-5.969 0.251-1.503c0.022-0.129-0.004-0.262-0.071-0.375l-6.625-11.041c-0.199-0.332-0.747-0.332-0.947 0l-6.625 11.041c-0.067 0.113-0.093 0.245-0.071 0.375l0.264 1.585-3.951 5.884c-0.504 0.757-0.604 1.713-0.266 2.556l3.985 9.962c0.084 0.213 0.29 0.347 0.511 0.347 0.035 0 0.070-0.003 0.105-0.010 0.26-0.050 0.448-0.278 0.448-0.542v-4.188l1.765-1.765 4.060 2.030c0.078 0.039 0.163 0.058 0.247 0.058s0.169-0.019 0.247-0.058l4.060-2.030 1.765 1.765v4.188c0 0.264 0.188 0.492 0.448 0.542 0.035 0.007 0.070 0.010 0.105 0.010 0.221 0 0.427-0.134 0.512-0.347l3.985-9.962c0.337-0.844 0.238-1.8-0.264-2.554zM8.848 26.641c-0.104 0.103-0.162 0.243-0.162 0.39v1.55l-2.92-7.301c-0.203-0.507-0.143-1.080 0.158-1.532l3.298-4.911 1.632 9.797-2.007 2.007zM19.781 24.455l-3.918 1.959-3.918-1.959-2.129-12.77 6.047-10.079 6.047 10.078-2.128 12.771zM25.96 21.281l-2.92 7.301v-1.55c0-0.147-0.058-0.287-0.162-0.39l-2.006-2.006 1.692-9.792 3.236 4.904c0.303 0.454 0.363 1.027 0.16 1.534z"></path>
<path fill="#fa6262" style="fill: var(--color1, #fa6262)" d="M15.863 8.814c-1.522 0-2.76 1.238-2.76 2.76s1.238 2.76 2.76 2.76c1.522 0 2.76-1.238 2.76-2.76s-1.238-2.76-2.76-2.76zM15.863 13.231c-0.913 0-1.656-0.743-1.656-1.656s0.743-1.656 1.656-1.656 1.656 0.743 1.656 1.656-0.743 1.656-1.656 1.656z"></path>
<path fill="#fa6262" style="fill: var(--color1, #fa6262)" d="M15.863 15.439c-0.305 0-0.552 0.247-0.552 0.552v6.625c0 0.305 0.247 0.552 0.552 0.552s0.552-0.247 0.552-0.552v-6.625c0-0.305-0.247-0.552-0.552-0.552z"></path>
<path fill="#fa6262" style="fill: var(--color1, #fa6262)" d="M9.733 24.577l-2.208-4.416c-0.137-0.273-0.468-0.382-0.741-0.247-0.273 0.136-0.383 0.468-0.247 0.741l2.208 4.416c0.097 0.193 0.291 0.305 0.494 0.305 0.083 0 0.167-0.019 0.246-0.058 0.273-0.137 0.384-0.468 0.247-0.741z"></path>
<path fill="#fa6262" style="fill: var(--color1, #fa6262)" d="M24.942 19.913c-0.273-0.135-0.605-0.026-0.741 0.247l-2.208 4.416c-0.136 0.273-0.026 0.605 0.247 0.741 0.079 0.040 0.164 0.059 0.247 0.059 0.203 0 0.397-0.111 0.495-0.305l2.208-4.416c0.136-0.273 0.025-0.604-0.247-0.741z"></path>
<path fill="#fa6262" style="fill: var(--color1, #fa6262)" d="M13.655 28.688c-0.305 0-0.552 0.247-0.552 0.552v2.208c0 0.305 0.247 0.552 0.552 0.552s0.552-0.247 0.552-0.552v-2.208c0-0.305-0.247-0.552-0.552-0.552z"></path>
<path fill="#fa6262" style="fill: var(--color1, #fa6262)" d="M20.279 26.48c-0.305 0-0.552 0.247-0.552 0.552v2.208c0 0.305 0.247 0.552 0.552 0.552s0.552-0.247 0.552-0.552v-2.208c0-0.305-0.247-0.552-0.552-0.552z"></path>
<path fill="#fa6262" style="fill: var(--color1, #fa6262)" d="M18.071 28.688c-0.305 0-0.552 0.247-0.552 0.552v2.208c0 0.305 0.247 0.552 0.552 0.552s0.552-0.247 0.552-0.552v-2.208c0-0.305-0.247-0.552-0.552-0.552z"></path>
<path fill="#fa6262" style="fill: var(--color1, #fa6262)" d="M7.030 2.19c-0.305 0-0.552 0.247-0.552 0.552v2.208c0 0.305 0.247 0.552 0.552 0.552s0.552-0.247 0.552-0.552v-2.208c0-0.305-0.247-0.552-0.552-0.552z"></path>
<path fill="#fa6262" style="fill: var(--color1, #fa6262)" d="M26.904 11.022c-0.305 0-0.552 0.247-0.552 0.552v2.208c0 0.305 0.247 0.552 0.552 0.552s0.552-0.247 0.552-0.552v-2.208c0-0.305-0.247-0.552-0.552-0.552z"></path>
</symbol>
<symbol id="icon-megaphone" viewBox="0 0 32 32">
<title>megaphone</title>
<path fill="#fa6262" style="fill: var(--color1, #fa6262)" d="M14.001 4.631c-0.307-0.274-0.771-0.274-1.078 0-0.298 0.312-0.298 0.804 0 1.116l0.847 0.847-9.968 15.394-3.002 3.002c-0.298 0.273-0.318 0.736-0.044 1.033 0.014 0.015 0.029 0.030 0.044 0.044l5.696 5.696c0.273 0.298 0.736 0.317 1.033 0.044 0.015-0.014 0.030-0.029 0.044-0.044l3.040-3.002 2.348-1.501 3.271 3.271c0.273 0.298 0.736 0.317 1.033 0.044 0.015-0.014 0.030-0.029 0.044-0.044l5.927-5.927c0.145-0.142 0.228-0.336 0.231-0.539 0.008-0.216-0.076-0.426-0.231-0.577l-1.77-1.77 4.503-2.886 0.847 0.847c0.167 0.125 0.369 0.192 0.577 0.192 0.195-0.006 0.384-0.073 0.539-0.192 0.264-0.325 0.264-0.791 0-1.116l-13.932-13.932zM7.035 30.147l-4.618-4.618 2.001-2.001 4.618 4.618-2.001 2.001zM21.621 24.066l-4.849 4.811-2.502-2.502 5.888-3.772 1.462 1.462zM10.229 27.145l-4.811-4.811 9.467-14.625 9.968 10.006-14.624 9.429z"></path>
<path fill="#fa6262" style="fill: var(--color1, #fa6262)" d="M22.237 9.365c0.151 0.155 0.361 0.239 0.577 0.231 0.203-0.003 0.397-0.086 0.539-0.231l4.349-4.349c0.298-0.312 0.298-0.804 0-1.116-0.273-0.298-0.736-0.317-1.033-0.044-0.015 0.014-0.030 0.029-0.044 0.044l-4.387 4.349c-0.264 0.325-0.264 0.791-0 1.116z"></path>
<path fill="#fa6262" style="fill: var(--color1, #fa6262)" d="M19.773 6.709h0.269c0.322-0.006 0.609-0.203 0.731-0.5l1.924-5.157c0.133-0.403-0.069-0.84-0.462-1.001-0.397-0.152-0.842 0.047-0.994 0.444-0.002 0.006-0.005 0.012-0.007 0.018l-1.886 5.196c-0.159 0.393 0.031 0.841 0.423 1.001z"></path>
<path fill="#fa6262" style="fill: var(--color1, #fa6262)" d="M31.396 9.249c-0.142-0.401-0.582-0.61-0.983-0.469-0.006 0.002-0.012 0.004-0.018 0.007l-5.157 1.924c-0.385 0.121-0.599 0.532-0.478 0.917 0.005 0.015 0.010 0.030 0.016 0.045 0.1 0.32 0.396 0.537 0.731 0.539l0.269-0.077 5.157-1.886c0.393-0.16 0.594-0.597 0.462-1.001z"></path>
</symbol>
<symbol id="icon-magic-wand" viewBox="0 0 32 32">
<title>magic-wand</title>
<path fill="#fa6262" style="fill: var(--color1, #fa6262)" d="M25.848 16.844l-4.115-3.964 2.223-5.298c0.158-0.384-0.023-0.829-0.407-0.987-0.211-0.090-0.452-0.075-0.656 0.038l-4.981 2.728-4.243-3.806c-0.309-0.279-0.784-0.249-1.063 0.060-0.151 0.173-0.219 0.407-0.181 0.633l1.002 5.667-4.883 2.924c-0.354 0.211-0.475 0.678-0.256 1.032 0.121 0.196 0.316 0.332 0.543 0.362l2.962 0.407-11.161 11.153c-0.844 0.844-0.844 2.208 0 3.052s2.208 0.844 3.052 0.008c0 0 0 0 0.008-0.008l11.334-11.342 0.678 3.12c0.068 0.317 0.332 0.55 0.648 0.588 0.030 0 0.060 0.008 0.090 0.008 0.286 0 0.558-0.166 0.678-0.43l2.479-5.177 5.652 0.52c0.414 0.038 0.784-0.264 0.821-0.678 0.023-0.226-0.060-0.452-0.226-0.61zM2.615 29.783c-0.256 0.256-0.663 0.256-0.919 0s-0.256-0.663 0-0.919l3.934-3.934 0.919 0.919-3.934 3.934zM7.619 24.779l-0.919-0.919 6.963-6.963 0.814 0.113 0.166 0.746-7.024 7.024zM19.217 16.067c-0.317-0.030-0.61 0.143-0.746 0.422l-1.756 3.67-0.867-3.987c-0.068-0.309-0.324-0.543-0.633-0.588l-4.054-0.558 3.489-2.087c0.271-0.158 0.407-0.467 0.354-0.776l-0.708-4.032 3.022 2.705c0.241 0.211 0.588 0.256 0.867 0.098l3.557-1.952-1.59 3.783c-0.121 0.286-0.053 0.618 0.173 0.837l2.939 2.834-4.047-0.369z"></path>
<path fill="#fa6262" style="fill: var(--color1, #fa6262)" d="M24.334 24.138l-2.103-3.067c-0.226-0.347-0.693-0.445-1.040-0.219s-0.445 0.693-0.219 1.040c0.008 0.008 0.015 0.015 0.015 0.030l2.103 3.067c0.234 0.347 0.701 0.43 1.047 0.196s0.43-0.701 0.196-1.047z"></path>
<path fill="#fa6262" style="fill: var(--color1, #fa6262)" d="M18.644 0.521c-0.414 0-0.754 0.339-0.754 0.754v3.632c0 0.414 0.339 0.754 0.754 0.754s0.754-0.339 0.754-0.754v-3.632c0-0.414-0.339-0.754-0.754-0.754z"></path>
<path fill="#fa6262" style="fill: var(--color1, #fa6262)" d="M31.975 10.287c-0.105-0.392-0.505-0.633-0.897-0.543l-4.846 1.213c-0.407 0.090-0.656 0.497-0.565 0.904s0.497 0.656 0.904 0.565c0.008 0 0.015-0.008 0.023-0.008l4.846-1.213c0.399-0.105 0.641-0.52 0.535-0.919z"></path>
<path fill="#fa6262" style="fill: var(--color1, #fa6262)" d="M8.697 9.285l-3.595-0.603c-0.414-0.068-0.799 0.211-0.859 0.626-0.068 0.407 0.203 0.791 0.603 0.867l3.595 0.603c0.045 0.008 0.083 0.008 0.128 0.008 0.414 0 0.754-0.339 0.754-0.754 0-0.369-0.264-0.678-0.626-0.746z"></path>
</symbol>
<symbol id="icon-browser" viewBox="0 0 32 32">
<title>browser</title>
<path fill="#fa6262" style="fill: var(--color1, #fa6262)" d="M29.241 4.414h-26.483c-1.521 0-2.759 1.238-2.759 2.759v17.655c0 1.521 1.238 2.759 2.759 2.759h26.483c1.521 0 2.759-1.238 2.759-2.759v-17.655c0-1.521-1.238-2.759-2.759-2.759zM30.897 24.828c0 0.913-0.743 1.655-1.655 1.655h-26.483c-0.913 0-1.655-0.743-1.655-1.655v-14.897h29.793v14.897zM30.897 8.828h-29.793v-1.655c0-0.913 0.743-1.655 1.655-1.655h26.483c0.913 0 1.655 0.743 1.655 1.655v1.655z"></path>
<path fill="#fa6262" style="fill: var(--color1, #fa6262)" d="M28.145 23.724h-0.937c-0.164-0.704-0.389-1.312-0.713-1.927l0.702-0.806c0.645-0.654 0.645-1.759 0.004-2.409l-1.556-1.609c-0.317-0.321-0.737-0.498-1.184-0.498-0.001 0-0.001 0-0.001 0-0.423 0-0.82 0.161-1.124 0.453l-0.961 0.739c-0.618-0.334-1.246-0.571-1.96-0.741v-0.957c0-0.087 0.002-0.158 0.004-0.217 0.007-0.215 0.014-0.459-0.189-0.664-0.205-0.206-0.453-0.201-0.673-0.194l-0.194 0.003-2.402-0.002c-0.604-0.010-1.359-0.021-1.783 0.397-0.184 0.18-0.281 0.415-0.281 0.678v1.030c-0.424 0.177-0.858 0.386-1.269 0.612l-0.559-0.671c-0.312-0.316-0.713-0.49-1.13-0.49 0 0 0 0-0.001 0-0.417 0.001-0.818 0.174-1.134 0.495l-1.509 1.567c-0.633 0.642-0.625 1.695 0.022 2.349l0.7 0.701c-0.38 0.758-0.632 1.585-0.785 2.184-0.076 0.295 0.104 0.595 0.399 0.67 0.291 0.076 0.595-0.103 0.67-0.399 0.227-0.892 0.537-1.701 0.872-2.276 0.126-0.217 0.090-0.49-0.086-0.668l-0.987-0.99c-0.222-0.225-0.231-0.583-0.014-0.802l1.509-1.567c0.208-0.211 0.512-0.176 0.657-0.035l0.824 0.992c0.174 0.209 0.473 0.262 0.708 0.121 0.787-0.471 1.504-0.769 1.861-0.905 0.214-0.081 0.356-0.286 0.356-0.515v-1.315c0.206-0.072 0.714-0.064 0.943-0.060l2.367 0.002v1.373c0 0.265 0.189 0.493 0.449 0.542 0.92 0.174 1.631 0.44 2.377 0.886 0.195 0.116 0.441 0.103 0.62-0.036l1.278-0.983c0.020-0.015 0.039-0.032 0.057-0.050 0.098-0.099 0.228-0.154 0.368-0.154 0.15 0 0.291 0.060 0.395 0.166l1.556 1.609c0.215 0.218 0.215 0.646-0.023 0.888l-0.979 1.123c-0.155 0.178-0.18 0.436-0.061 0.641 0.445 0.761 0.696 1.449 0.87 2.374 0.048 0.261 0.276 0.45 0.542 0.45h1.386c0.546 0 0.546 0.201 0.546 0.298 0 0.305 0.247 0.552 0.552 0.552s0.552-0.247 0.552-0.552c0-0.851-0.648-1.401-1.649-1.401z"></path>
<path fill="#fa6262" style="fill: var(--color1, #fa6262)" d="M22.546 23.478c-0.214-0.377-0.478-0.726-0.784-1.036-0.934-0.946-2.176-1.466-3.498-1.466s-2.563 0.52-3.498 1.466c-0.305 0.31-0.569 0.657-0.785 1.034-0.151 0.264-0.059 0.602 0.205 0.753 0.087 0.050 0.181 0.073 0.274 0.073 0.191 0 0.378-0.1 0.479-0.278 0.168-0.295 0.375-0.566 0.612-0.807 0.724-0.734 1.688-1.138 2.712-1.138s1.988 0.404 2.712 1.138c0.239 0.242 0.445 0.514 0.612 0.807 0.15 0.264 0.488 0.356 0.753 0.205s0.356-0.488 0.205-0.753z"></path>
<path fill="#fa6262" style="fill: var(--color1, #fa6262)" d="M18.264 18.753c-3.022 0-5.727 1.936-6.733 4.817-0.1 0.287 0.052 0.602 0.339 0.702 0.060 0.021 0.121 0.031 0.182 0.031 0.228 0 0.441-0.142 0.521-0.37 0.851-2.438 3.139-4.077 5.691-4.077 0.305 0 0.552-0.247 0.552-0.552s-0.247-0.552-0.552-0.552z"></path>
<path fill="#fa6262" style="fill: var(--color1, #fa6262)" d="M13.793 11.034h-11.034c-0.305 0-0.552 0.247-0.552 0.552s0.247 0.552 0.552 0.552h11.034c0.305 0 0.552-0.247 0.552-0.552s-0.247-0.552-0.552-0.552z"></path>
<path fill="#fa6262" style="fill: var(--color1, #fa6262)" d="M9.379 13.241h-6.621c-0.305 0-0.552 0.247-0.552 0.552s0.247 0.552 0.552 0.552h6.621c0.305 0 0.552-0.247 0.552-0.552s-0.247-0.552-0.552-0.552z"></path>
<path fill="#fa6262" style="fill: var(--color1, #fa6262)" d="M4.966 15.448h-2.207c-0.305 0-0.552 0.247-0.552 0.552s0.247 0.552 0.552 0.552h2.207c0.305 0 0.552-0.247 0.552-0.552s-0.247-0.552-0.552-0.552z"></path>
<path fill="#fa6262" style="fill: var(--color1, #fa6262)" d="M4.966 22.069h-2.207c-0.305 0-0.552 0.247-0.552 0.552s0.247 0.552 0.552 0.552h2.207c0.305 0 0.552-0.247 0.552-0.552s-0.247-0.552-0.552-0.552z"></path>
<path fill="#fa6262" style="fill: var(--color1, #fa6262)" d="M7.178 6.621h-0.006c-0.305 0-0.549 0.247-0.549 0.552s0.25 0.552 0.555 0.552 0.552-0.247 0.552-0.552-0.247-0.552-0.552-0.552z"></path>
<path fill="#fa6262" style="fill: var(--color1, #fa6262)" d="M4.972 6.621h-0.006c-0.305 0-0.549 0.247-0.549 0.552s0.25 0.552 0.555 0.552 0.552-0.247 0.552-0.552-0.247-0.552-0.552-0.552z"></path>
<path fill="#fa6262" style="fill: var(--color1, #fa6262)" d="M2.765 6.621h-0.006c-0.305 0-0.549 0.247-0.549 0.552s0.25 0.552 0.555 0.552 0.552-0.247 0.552-0.552-0.247-0.552-0.552-0.552z"></path>
</symbol>
<symbol id="icon-brain" viewBox="0 0 32 32">
<title>brain</title>
<path fill="#fa6262" style="fill: var(--color1, #fa6262)" d="M23.145 11.404v-0.138c-0.136-1.802-1.638-3.194-3.445-3.194-0.264 0.004-0.526 0.038-0.783 0.101-1.123-2.067-3.708-2.833-5.775-1.71-0.723 0.393-1.317 0.987-1.71 1.71-0.261-0.064-0.529-0.098-0.799-0.101-1.91 0.003-3.458 1.55-3.461 3.461 0 0.091 0 0.176 0 0.266-1.176 0.882-1.415 2.551-0.532 3.727 0.503 0.67 1.292 1.065 2.13 1.065h3.892l1.464 3.913c0.078 0.209 0.278 0.347 0.5 0.346h3.194c2.697 0.003 4.964-2.025 5.26-4.706v-0.192c0.706-0.551 1.122-1.394 1.129-2.289-0-0.874-0.391-1.701-1.065-2.257zM14.994 19.784l-1.198-3.194h1.528l1.198 3.194h-1.528zM17.821 19.784h-0.165l-0.399-1.065h3.37c-0.773 0.687-1.772 1.066-2.806 1.065zM21.489 17.654h-4.632l-0.399-1.065h4.823c0.22-0.001 0.44-0.026 0.655-0.075-0.096 0.399-0.246 0.782-0.447 1.139zM22.828 14.696c-0.345 0.517-0.925 0.827-1.547 0.828h-5.058c-1.029 0-1.863-0.834-1.863-1.863s0.834-1.863 1.863-1.863v-1.065c-1.616 0.003-2.925 1.312-2.928 2.928-0.002 0.681 0.236 1.34 0.671 1.863h-1.469c0-1.47-1.192-2.662-2.662-2.662v1.065c0.882 0 1.597 0.715 1.597 1.597h-2.662c-0.882 0-1.597-0.715-1.597-1.597s0.715-1.597 1.597-1.597v-1.065c-0.179-0-0.357 0.018-0.532 0.053 0.111-1.239 1.152-2.188 2.396-2.183 0.295-0.001 0.588 0.053 0.862 0.16 0.329 0.131 0.625 0.333 0.868 0.591-0.26 0.413-0.399 0.891-0.399 1.379h1.065c0-0.882 0.715-1.597 1.597-1.597v-1.065c-0.554 0.002-1.094 0.177-1.544 0.5-0.198-0.204-0.419-0.382-0.66-0.532 0.91-1.511 2.873-1.999 4.384-1.089 0.954 0.574 1.54 1.604 1.547 2.718h1.065c-0.001-0.348-0.045-0.696-0.133-1.033 0.132-0.021 0.266-0.032 0.399-0.032 1.321 0 2.393 1.069 2.396 2.39v0.144c-0 0.177 0.087 0.343 0.234 0.442 0.856 0.572 1.086 1.729 0.514 2.585z"></path>
<path fill="#fa6262" style="fill: var(--color1, #fa6262)" d="M18.353 11.265v1.065c0.882 0 1.597 0.715 1.597 1.597h1.065c0-1.47-1.192-2.662-2.662-2.662z"></path>
<path fill="#fa6262" style="fill: var(--color1, #fa6262)" d="M30.683 2.215c-0.861-0.148-1.535-0.822-1.682-1.682 0-0.294-0.238-0.532-0.532-0.532s-0.532 0.238-0.532 0.532c-0.148 0.861-0.822 1.535-1.682 1.682-0.294 0-0.532 0.238-0.532 0.532s0.238 0.532 0.532 0.532c0.861 0.148 1.535 0.822 1.682 1.682 0 0.294 0.238 0.532 0.532 0.532s0.532-0.238 0.532-0.532c0.148-0.861 0.822-1.535 1.682-1.682 0.294 0 0.532-0.238 0.532-0.532s-0.238-0.532-0.532-0.532zM28.469 3.508c-0.207-0.297-0.464-0.555-0.761-0.761 0.297-0.207 0.555-0.464 0.761-0.761 0.207 0.297 0.464 0.555 0.761 0.761-0.297 0.207-0.555 0.464-0.761 0.761z"></path>
<path fill="#fa6262" style="fill: var(--color1, #fa6262)" d="M5.661 26.705c-0.861-0.148-1.535-0.822-1.682-1.682 0-0.294-0.238-0.532-0.532-0.532s-0.532 0.238-0.532 0.532c-0.148 0.861-0.822 1.535-1.682 1.682-0.26 0.042-0.451 0.269-0.447 0.532-0.003 0.264 0.187 0.49 0.447 0.532 0.861 0.148 1.535 0.822 1.682 1.682 0 0.294 0.238 0.532 0.532 0.532s0.532-0.238 0.532-0.532c0.148-0.861 0.822-1.535 1.682-1.682 0.294 0 0.532-0.238 0.532-0.532s-0.238-0.532-0.532-0.532zM3.446 27.998c-0.207-0.297-0.464-0.555-0.761-0.761 0.297-0.207 0.555-0.464 0.761-0.761 0.207 0.297 0.464 0.555 0.761 0.761-0.297 0.207-0.555 0.464-0.761 0.761z"></path>
<path fill="#fa6262" style="fill: var(--color1, #fa6262)" d="M25.61 19.784c-0.181 0.288-0.367 0.57-0.57 0.846l0.857 0.628c0.218-0.298 0.442-0.607 0.618-0.942l-0.905-0.532z"></path>
<path fill="#fa6262" style="fill: var(--color1, #fa6262)" d="M24.401 21.429c-0.218 0.25-0.458 0.5-0.703 0.74l0.745 0.761c0.266-0.256 0.522-0.527 0.761-0.804l-0.804-0.697z"></path>
<path fill="#fa6262" style="fill: var(--color1, #fa6262)" d="M27.957 9.674l-1.043 0.282c0.096 0.33 0.176 0.66 0.245 0.99l1.065-0.208c-0.075-0.362-0.16-0.724-0.266-1.065z"></path>
<path fill="#fa6262" style="fill: var(--color1, #fa6262)" d="M26.525 17.963c-0.128 0.309-0.266 0.623-0.421 0.932l0.953 0.474c0.165-0.33 0.346-0.649 0.453-1.012l-0.985-0.394z"></path>
<path fill="#fa6262" style="fill: var(--color1, #fa6262)" d="M22.894 2.561l-0.618 0.868c0.277 0.197 0.532 0.41 0.804 0.628l0.687-0.815c-0.277-0.234-0.57-0.463-0.873-0.681z"></path>
<path fill="#fa6262" style="fill: var(--color1, #fa6262)" d="M25.982 5.697l-0.841 0.607c0.197 0.277 0.389 0.564 0.532 0.857l0.916-0.532c-0.186-0.319-0.389-0.628-0.607-0.932z"></path>
<path fill="#fa6262" style="fill: var(--color1, #fa6262)" d="M24.582 3.998l-0.756 0.751c0.245 0.24 0.474 0.49 0.692 0.751l0.815-0.687c-0.234-0.282-0.49-0.532-0.751-0.815z"></path>
<path fill="#fa6262" style="fill: var(--color1, #fa6262)" d="M27.143 7.587l-0.958 0.484c0.144 0.309 0.282 0.623 0.405 0.937l0.99-0.405c-0.128-0.341-0.277-0.687-0.437-1.017z"></path>
<path fill="#fa6262" style="fill: var(--color1, #fa6262)" d="M27.1 16.014c-0.069 0.33-0.16 0.666-0.256 0.985l1.017 0.314c0.128-0.351 0.224-0.724 0.303-1.075l-1.065-0.224z"></path>
<path fill="#fa6262" style="fill: var(--color1, #fa6262)" d="M28.378 11.83l-1.065 0.122c0.043 0.335 0.064 0.681 0.080 1.022l1.065-0.037c0.011-0.373-0.037-0.74-0.080-1.107z"></path>
<path fill="#fa6262" style="fill: var(--color1, #fa6262)" d="M27.404 13.991c0 0.341-0.048 0.681-0.090 1.017l1.065 0.138c0.021-0.362 0.059-0.735 0.090-1.102l-1.065-0.053z"></path>
<path fill="#fa6262" style="fill: var(--color1, #fa6262)" d="M2.914 14.108l-1.065 0.064c0 0.367 0.059 0.74 0.112 1.102l1.065-0.149c-0.037-0.335-0.069-0.665-0.112-1.017z"></path>
<path fill="#fa6262" style="fill: var(--color1, #fa6262)" d="M21.015 1.427l-0.463 0.958c0.303 0.149 0.607 0.314 0.894 0.484l0.532-0.916c-0.325-0.186-0.655-0.362-0.964-0.527z"></path>
<path fill="#fa6262" style="fill: var(--color1, #fa6262)" d="M3.217 16.137l-1.038 0.24c0.085 0.357 0.181 0.719 0.293 1.065l1.017-0.319c-0.106-0.325-0.192-0.655-0.272-0.985z"></path>
<path fill="#fa6262" style="fill: var(--color1, #fa6262)" d="M1.913 11.936c-0.027 0.394-0.064 0.756-0.064 1.129h1.065c0-0.335 0.027-0.681 0.064-1.017l-1.065-0.112z"></path>
<path fill="#fa6262" style="fill: var(--color1, #fa6262)" d="M4.772 19.879l-0.905 0.564c0.192 0.309 0.405 0.618 0.628 0.916l0.852-0.639c-0.202-0.272-0.399-0.532-0.575-0.841z"></path>
<path fill="#fa6262" style="fill: var(--color1, #fa6262)" d="M2.36 9.78c-0.112 0.357-0.202 0.719-0.272 1.081l1.065 0.202c0.064-0.335 0.144-0.665 0.234-0.996l-1.028-0.287z"></path>
<path fill="#fa6262" style="fill: var(--color1, #fa6262)" d="M5.991 21.514l-0.799 0.703c0.245 0.277 0.532 0.532 0.772 0.799l0.735-0.767c-0.245-0.234-0.484-0.484-0.708-0.735z"></path>
<path fill="#fa6262" style="fill: var(--color1, #fa6262)" d="M3.122 7.709c-0.16 0.362-0.303 0.676-0.431 1.017l0.996 0.378c0.124-0.319 0.257-0.634 0.399-0.942l-0.964-0.453z"></path>
<path fill="#fa6262" style="fill: var(--color1, #fa6262)" d="M7.466 22.898l-0.671 0.852c0.282 0.229 0.586 0.453 0.889 0.66l0.596-0.9c-0.277-0.192-0.532-0.399-0.815-0.612z"></path>
<path fill="#fa6262" style="fill: var(--color1, #fa6262)" d="M9.148 24.064l-0.522 0.932c0.319 0.176 0.649 0.346 0.99 0.5l0.442-0.964c-0.309-0.144-0.612-0.298-0.91-0.468z"></path>
<path fill="#fa6262" style="fill: var(--color1, #fa6262)" d="M21.265 23.995c-0.293 0.165-0.596 0.325-0.905 0.474l0.458 0.98c0.335-0.16 0.666-0.335 0.98-0.532l-0.532-0.921z"></path>
<path fill="#fa6262" style="fill: var(--color1, #fa6262)" d="M3.835 18.069l-0.98 0.405c0.138 0.341 0.293 0.681 0.463 1.006l0.948-0.484c-0.153-0.302-0.296-0.61-0.431-0.926z"></path>
<path fill="#fa6262" style="fill: var(--color1, #fa6262)" d="M4.218 5.787c-0.197 0.303-0.394 0.623-0.58 0.937l0.921 0.532c0.17-0.287 0.357-0.58 0.532-0.857l-0.873-0.612z"></path>
<path fill="#fa6262" style="fill: var(--color1, #fa6262)" d="M5.65 4.083c-0.261 0.266-0.532 0.532-0.745 0.825l0.82 0.676c0.218-0.256 0.447-0.511 0.687-0.756l-0.761-0.745z"></path>
<path fill="#fa6262" style="fill: var(--color1, #fa6262)" d="M7.322 2.635c-0.298 0.218-0.586 0.447-0.868 0.687l0.719 0.809c0.256-0.224 0.532-0.437 0.799-0.639l-0.649-0.857z"></path>
<path fill="#fa6262" style="fill: var(--color1, #fa6262)" d="M13.439 0.197c-0.368 0.044-0.735 0.106-1.097 0.186l0.229 1.038c0.33-0.069 0.665-0.128 1.001-0.17l-0.133-1.054z"></path>
<path fill="#fa6262" style="fill: var(--color1, #fa6262)" d="M11.272 0.66c-0.351 0.106-0.703 0.234-1.065 0.367l0.399 0.99c0.314-0.122 0.639-0.24 0.958-0.335l-0.293-1.022z"></path>
<path fill="#fa6262" style="fill: var(--color1, #fa6262)" d="M14.541 0.085l0.048 1.065c0.341 0 0.681 0 1.022 0l0.037-1.065c-0.367 0-0.74 0-1.107 0z"></path>
<path fill="#fa6262" style="fill: var(--color1, #fa6262)" d="M18.923 0.618l-0.298 1.017c0.325 0.101 0.649 0.208 0.964 0.33l0.362-0.98c-0.319-0.133-0.671-0.256-1.027-0.367z"></path>
<path fill="#fa6262" style="fill: var(--color1, #fa6262)" d="M16.756 0.181l-0.128 1.065c0.335 0.043 0.671 0.096 1.006 0.165l0.213-1.065c-0.362-0.064-0.729-0.122-1.091-0.165z"></path>
<path fill="#fa6262" style="fill: var(--color1, #fa6262)" d="M9.212 1.48c-0.325 0.165-0.649 0.346-0.969 0.532l0.532 0.91c0.291-0.178 0.589-0.343 0.894-0.495l-0.458-0.948z"></path>
<path fill="#fa6262" style="fill: var(--color1, #fa6262)" d="M22.942 22.85c-0.261 0.213-0.532 0.421-0.815 0.612l0.607 0.878c0.303-0.213 0.602-0.437 0.884-0.671l-0.676-0.82z"></path>
<path fill="#fa6262" style="fill: var(--color1, #fa6262)" d="M24.124 7.653c-0.52-0.813-1.149-1.552-1.868-2.196-4.367-3.939-11.1-3.592-15.038 0.775s-3.592 11.099 0.775 15.038c0.44 0.397 0.912 0.756 1.412 1.074 0.938 0.605 1.503 1.647 1.496 2.763v2.662c0.001 0.988 0.683 1.846 1.645 2.071 0.278 1.444 1.673 2.389 3.117 2.111 1.069-0.206 1.906-1.042 2.111-2.111 0.963-0.225 1.644-1.083 1.645-2.071v-2.662c-0.010-1.107 0.546-2.143 1.475-2.747 4.954-3.169 6.4-9.754 3.231-14.707zM15.159 30.964c-0.677 0-1.281-0.426-1.507-1.065h3.013c-0.226 0.638-0.829 1.065-1.507 1.065zM17.288 28.834h-4.259c-0.588 0-1.065-0.477-1.065-1.065h6.389c0 0.588-0.477 1.065-1.065 1.065zM18.353 26.705h-6.389v-1.065h6.389v1.065zM22.296 19.782c-0.579 0.646-1.242 1.211-1.973 1.679h-0.005c-1.081 0.694-1.791 1.838-1.933 3.114h-1.097v-2.662h-1.065v2.662h-2.13v-3.194h-1.065v3.194h-1.097c-0.15-1.282-0.867-2.429-1.954-3.125-4.447-2.87-5.726-8.801-2.856-13.248 1.55-2.401 4.090-3.986 6.928-4.321 0.368-0.044 0.737-0.067 1.107-0.069 2.359-0.012 4.637 0.858 6.389 2.438 3.943 3.53 4.278 9.588 0.748 13.532z"></path>
</symbol>
</defs>
</svg>
